<svg width="128" height="128" viewBox="0 0 128 128" fill="none" xmlns="http://www.w3.org/2000/svg">
<path d="M63.9999 23.0092C77.3506 23.0092 78.9318 23.06 84.2041 23.3006C89.0791 23.5231 91.7265 24.3376 93.4885 25.0222C95.8223 25.9292 97.4881 27.0128 99.2376 28.7624C100.987 30.5119 102.071 32.1777 102.978 34.5115C103.662 36.2735 104.477 38.9209 104.699 43.7957C104.94 49.0682 104.991 50.6494 104.991 64.0001C104.991 77.3508 104.94 78.932 104.699 84.2043C104.477 89.0792 103.662 91.7267 102.978 93.4888C102.071 95.8224 100.987 97.4883 99.2376 99.2378C97.4881 100.987 95.8223 102.071 93.4885 102.978C91.7265 103.663 89.0791 104.477 84.2041 104.7C78.9326 104.94 77.3514 104.991 63.9999 104.991C50.6485 104.991 49.0672 104.94 43.7957 104.7C38.9208 104.477 36.2733 103.663 34.5115 102.978C32.1776 102.071 30.5117 100.987 28.7622 99.2378C27.0126 97.4883 25.929 95.8224 25.0222 93.4888C24.3374 91.7267 23.5228 89.0792 23.3003 84.2045C23.0598 78.932 23.009 77.3508 23.009 64.0001C23.009 50.6494 23.0598 49.0682 23.3003 43.7959C23.5228 38.9209 24.3374 36.2735 25.0222 34.5115C25.929 32.1777 27.0126 30.5119 28.7622 28.7624C30.5117 27.0128 32.1776 25.9292 34.5115 25.0222C36.2733 24.3376 38.9208 23.5231 43.7955 23.3006C49.068 23.06 50.6493 23.0092 63.9999 23.0092ZM63.9999 14C50.4206 14 48.7181 14.0576 43.3851 14.3009C38.063 14.5439 34.4285 15.389 31.248 16.625C27.96 17.9028 25.1716 19.6125 22.3919 22.3922C19.6123 25.1718 17.9026 27.9601 16.6249 31.2481C15.3888 34.4286 14.5436 38.0632 14.3007 43.3852C14.0574 48.7181 14 50.4208 14 64.0001C14 77.5794 14.0574 79.282 14.3007 84.6149C14.5436 89.937 15.3888 93.5715 16.6249 96.752C17.9026 100.04 19.6123 102.828 22.3919 105.608C25.1716 108.387 27.96 110.098 31.248 111.375C34.4285 112.611 38.063 113.457 43.3851 113.699C48.7181 113.943 50.4206 114 63.9999 114C77.5792 114 79.2819 113.943 84.6148 113.699C89.9368 113.457 93.5714 112.611 96.7519 111.375C100.04 110.098 102.828 108.387 105.608 105.608C108.387 102.828 110.098 100.04 111.375 96.752C112.611 93.5715 113.456 89.937 113.699 84.6149C113.942 79.282 114 77.5794 114 64.0001C114 50.4208 113.942 48.7181 113.699 43.3852C113.456 38.0632 112.611 34.4286 111.375 31.2481C110.098 27.9601 108.387 25.1718 105.608 22.3922C102.828 19.6125 100.04 17.9028 96.7519 16.625C93.5714 15.389 89.9368 14.5439 84.6148 14.3009C79.2819 14.0576 77.5792 14 63.9999 14ZM63.9999 38.3243C49.8197 38.3243 38.3241 49.8199 38.3241 64.0001C38.3241 78.1803 49.8197 89.6759 63.9999 89.6759C78.1801 89.6759 89.6757 78.1803 89.6757 64.0001C89.6757 49.8199 78.1801 38.3243 63.9999 38.3243ZM63.9999 80.6668C54.7952 80.6668 47.3332 73.2048 47.3332 64.0001C47.3332 54.7955 54.7952 47.3333 63.9999 47.3333C73.2045 47.3333 80.6667 54.7955 80.6667 64.0001C80.6667 73.2048 73.2045 80.6668 63.9999 80.6668ZM96.69 37.3099C96.69 40.6236 94.0039 43.31 90.6901 43.31C87.3764 43.31 84.69 40.6236 84.69 37.3099C84.69 33.9961 87.3764 31.31 90.6901 31.31C94.0039 31.31 96.69 33.9961 96.69 37.3099Z" fill="#BABABA"/>
</svg>
