<svg width="128" height="128" viewBox="0 0 128 128" fill="none" xmlns="http://www.w3.org/2000/svg">
<path d="M78.4411 63.9995C83.3603 61.3931 85.2307 57.0891 85.2307 52.0902C85.2307 43.8662 80.169 37.5249 64.8003 37.5249H46.4336V90.4741H57.2929H58.581V75.974H73.081V90.4741H85.2295V75.9088C85.2295 70.9099 83.359 66.6058 78.4399 63.9995H78.4411Z" fill="#BABABA"/>
<path d="M110.659 44.5319C108.14 38.576 104.536 33.2291 99.9456 28.6375C95.3552 24.0458 90.007 20.4414 84.0511 17.922C78.2633 15.4739 72.1407 14.158 65.8319 14.0059V24.2827C75.9784 24.5932 85.4722 28.6894 92.6824 35.8996C100.187 43.4045 104.321 53.3842 104.321 63.9982C104.321 74.6122 100.187 84.5905 92.6824 92.0966C85.1773 99.6028 75.1977 103.735 64.5838 103.735C53.9698 103.735 43.9914 99.6016 36.4852 92.0966C28.9802 84.5917 24.8466 74.6122 24.8466 63.9982H34.9965L19.7111 37.5236L4.42578 63.9982H14.5757C14.5757 70.7467 15.8989 77.2958 18.5077 83.4643C21.027 89.4202 24.6315 94.7671 29.2231 99.3587C33.8136 103.949 39.1616 107.555 45.1175 110.074C51.2861 112.683 57.8353 114.006 64.5838 114.006C71.3323 114.006 77.8814 112.683 84.05 110.074C90.0058 107.555 95.3527 103.95 99.9444 99.3587C104.535 94.7683 108.14 89.4202 110.658 83.4643C113.268 77.2958 114.591 70.7467 114.591 63.9982C114.591 57.2495 113.269 50.7004 110.659 44.5319Z" fill="#BABABA"/>
</svg>
