<?xml version="1.0" encoding="UTF-8"?>
<svg id="Layer_1" xmlns="http://www.w3.org/2000/svg" version="1.1" viewBox="0 0 1080 1080">
  <!-- Generator: Adobe Illustrator 29.0.1, SVG Export Plug-In . SVG Version: 2.1.0 Build 192)  -->
  <path d="M216.1,559.4v-104.1h36v104.1c0,18-2.8,32-8.4,42.1-10.4,18.4-30.3,27.6-59.6,27.6s-49.3-9.2-59.8-27.6c-5.6-10-8.4-24.1-8.4-42.1v-104.1h36v104.1c0,11.6,1.4,20.1,4.1,25.5,4.3,9.5,13.6,14.2,28,14.2s23.6-4.7,27.9-14.2c2.8-5.4,4.1-13.9,4.1-25.5Z"/>
  <path d="M376.1,620.5c-9.3,5.7-20.8,8.6-34.5,8.6-22.4,0-40.8-7.8-55.2-23.3-14.9-15.6-22.4-37-22.4-64.1s7.5-49.4,22.6-66c15.1-16.5,35-24.8,59.9-24.8s38.8,5.5,51.9,16.4c13.1,10.9,20.6,24.5,22.5,40.9h-34.8c-2.7-11.6-9.2-19.7-19.7-24.2-5.8-2.5-12.3-3.8-19.4-3.8-13.6,0-24.8,5.2-33.6,15.5-8.8,10.3-13.2,25.8-13.2,46.5s4.8,35.6,14.2,44.2c9.5,8.7,20.3,13,32.4,13s21.6-3.4,29.2-10.3c7.6-6.9,12.3-15.8,14-26.9h-39.2v-28.3h70.6v90.9h-23.4l-3.6-21.1c-6.8,8-12.9,13.7-18.4,17Z"/>
  <path d="M441.6,455.2h35.4v138.9h83.9v30.5h-119.3v-169.4Z"/>
  <path d="M681.7,455.2l-56.7,105.7v63.7h-35.4v-63.7l-58.6-105.7h41.7l35.2,73.8,33.7-73.8h40.1Z"/>
  <path d="M759.8,563.7h-36v60.9h-35.2v-169.4h73.8c17,0,30.6,4.4,40.7,13.1,10.1,8.7,15.2,22.3,15.2,40.6s-5.1,34.1-15.2,42.4c-10.1,8.3-24.6,12.4-43.3,12.4ZM776.4,528.5c4.6-4.1,6.9-10.5,6.9-19.3s-2.3-15.1-7-18.8c-4.6-3.8-11.1-5.6-19.5-5.6h-33v49.9h33c8.3,0,14.9-2,19.5-6.1Z"/>
  <path d="M928.9,624.6v-75.6h-66.2v75.6h-35v-169.4h35v64.6h66.2v-64.6h35.2v169.4h-35.2Z"/>
</svg>