<?xml version="1.0" encoding="UTF-8"?>
<svg id="Layer_1" xmlns="http://www.w3.org/2000/svg" version="1.1" viewBox="0 0 1080 1080">
  <!-- Generator: Adobe Illustrator 29.0.1, SVG Export Plug-In . SVG Version: 2.1.0 Build 192)  -->
  <defs>
    <style>
      .st0 {
        fill: #1c1b1a;
      }
    </style>
  </defs>
  <path class="st0" d="M269.8,597.2c-29.5,0-51.1-15.2-51.1-45.6v-85.3h26.5v85.3c0,15.5,7.9,23,24.6,23s24.6-7.4,24.6-23v-85.3h26.5v85.3c0,30.4-21.6,45.6-51.1,45.6Z"/>
  <path class="st0" d="M433.7,595.1l-3.2-17.7c-9.9,13.6-21.6,19.8-38.9,19.8-34.8,0-60.2-27.6-60.2-66.6s25.3-66.4,62.4-66.4,52.6,16.8,55.8,43.3h-24.9c-5.1-15-16.3-20.7-30.7-20.7-22.4,0-36,15.7-36,43.5s15.4,44.3,36.7,44.3,30.9-10.6,32.7-26.7h-29.3v-22.1h51.6v69.2h-15.9Z"/>
  <path class="st0" d="M464.7,595.1v-128.8h26.5v106.7h61.7v22.1h-88.1Z"/>
  <path class="st0" d="M597.9,547.4v47.7h-26.5v-47.7l-42.7-81.1h29.5l26.3,56.9,24.6-56.9h29.7l-40.8,81.1Z"/>
  <path class="st0" d="M708.6,549.2h-33v45.9h-26.5v-128.8h56.9c26.9,0,41.5,14.1,41.5,39.9s-15.2,42.9-38.9,42.9ZM700.3,488.4h-24.7v38.7h24.7c14.1,0,20.7-6.2,20.7-19.3s-6.5-19.4-20.7-19.4Z"/>
  <path class="st0" d="M834.8,595.1v-58.5h-51.1v58.5h-26.5v-128.8h26.5v48.2h51.1v-48.2h26.5v128.8h-26.5Z"/>
</svg>