<svg width="128" height="128" viewBox="0 0 128 128" fill="none" xmlns="http://www.w3.org/2000/svg">
<path d="M76.2533 64.0005C80.6039 61.6954 82.2582 57.8888 82.2582 53.4677C82.2582 46.1943 77.7815 40.5859 64.1891 40.5859H47.9453V87.4151H57.5495H58.6887V74.591H71.5127V87.4151H82.2571V74.5333C82.2571 70.1122 80.6028 66.3056 76.2523 64.0005H76.2533Z" fill="#BABABA"/>
<path d="M104.748 46.783C102.52 41.5155 99.3323 36.7866 95.2724 32.7257C91.2126 28.6647 86.4826 25.4769 81.2151 23.2487C76.0962 21.0836 70.6813 19.9198 65.1017 19.7852V28.8742C74.0754 29.1488 82.4719 32.7716 88.8487 39.1484C95.4862 45.7859 99.1421 54.6121 99.1421 63.9993C99.1421 73.3865 95.4862 82.2115 88.8487 88.8501C82.2111 95.4887 73.385 99.1436 63.9978 99.1436C54.6106 99.1436 45.7855 95.4876 39.1469 88.8501C32.5094 82.2126 28.8535 73.3865 28.8535 63.9993H37.8303L24.3116 40.5847L10.793 63.9993H19.7698C19.7698 69.9678 20.94 75.76 23.2473 81.2155C25.4754 86.483 28.6633 91.2119 32.7242 95.2728C36.7841 99.3327 41.514 102.522 46.7815 104.75C52.2371 107.057 58.0293 108.227 63.9978 108.227C69.9663 108.227 75.7585 107.057 81.2141 104.75C86.4815 102.522 91.2104 99.3338 95.2714 95.2728C99.3312 91.213 102.52 86.483 104.747 81.2155C107.055 75.76 108.225 69.9678 108.225 63.9993C108.225 58.0307 107.055 52.2385 104.747 46.783H104.748Z" fill="#BABABA"/>
</svg>
